<?xml version="1.0" encoding="utf-8"?>
<!-- Generator: Adobe Illustrator 16.0.4, SVG Export Plug-In . SVG Version: 6.00 Build 0)  -->
<!DOCTYPE svg PUBLIC "-//W3C//DTD SVG 1.1//EN" "http://www.w3.org/Graphics/SVG/1.1/DTD/svg11.dtd">
<svg version="1.1" id="Capa_1" xmlns="http://www.w3.org/2000/svg" xmlns:xlink="http://www.w3.org/1999/xlink" x="0px" y="0px"
	 width="612px" height="612px" viewBox="0 0 612 612" enable-background="new 0 0 612 612" xml:space="preserve">
<g>
	
		<image overflow="visible" opacity="0.3" width="643" height="365" xlink:href="77E2899D78649270.png"  transform="matrix(1 0 0 1 -8.5 130.5)">
	</image>
	<g>
		<g>
			<g>
				<path fill="#FFFFFF" d="M604.267,194.727c4.258,0,7.733-3.644,7.733-7.733v-40.169c0-4.256-3.283-7.733-7.733-7.733H7.733
					c-4.256,0-7.733,3.644-7.733,7.733v40.169c0,4.256,3.283,7.733,7.733,7.733H604.267L604.267,194.727z"/>
				<path fill="#FFFFFF" d="M0,326.084c0,4.256,3.283,7.733,7.733,7.733h596.533c4.256,0,7.733-3.646,7.733-7.733v-40.169
					c0-4.284-3.283-7.733-7.733-7.733H7.733c-4.256,0-7.733,3.645-7.733,7.733V326.084z"/>
				<path fill="#FFFFFF" d="M0,465.175c0,4.256,3.283,7.733,7.733,7.733h596.533c4.256,0,7.733-3.646,7.733-7.733v-40.169
					c0-4.256-3.283-7.731-7.733-7.731H7.733c-4.256,0-7.733,3.644-7.733,7.731V465.175z"/>
			</g>
		</g>
	</g>
</g>
</svg>
